<svg xmlns="http://www.w3.org/2000/svg" height="1000" width="1000" version="1.1" xmlns:xlink="http://www.w3.org/1999/xlink" xmlns:svgjs="http://svgjs.com/svgjs"><rect fill="#f3ebe9" width="1000" height="1000"></rect><g><path d="M368.12 411.15L378.31 275.11C378.31 274.35 378.49 273.6 378.49 272.84 380.57 259.64 392.27 250.01 405.66 250.39 406.8 250.39 408.12 250.58 409.25 250.77 410 250.96 410.76 251.15 411.51 251.33 418.49 253.03 424.16 257.37 427.93 263.6 431.7 269.82 432.65 276.99 430.76 283.79L397.17 415.67 368.12 411.15Z" fill="#ffc930" opacity="1" stroke-width="4" stroke="none"></path><path d="M644.34 749.26L652.83 686.43H681.33C698.68 686.43 712.65 700.58 712.65 717.75 712.65 734.92 698.68 749.26 681.33 749.26H644.34Z" fill="#ffc930" opacity="1" stroke-width="4" stroke="none"></path><path d="M371.14 673.39C364.34 673.01 358.12 668.3 355.85 661.32L344.53 627.73C336.61 604.15 347.55 578.67 370.19 568.3L455.1 529.62 475.48 613.39 390.57 613.2 393.97 626.03C397.74 640.37 394.34 655.66 385.1 666.98 381.89 670.94 377.17 673.01 372.08 673.01 371.51 673.39 371.33 673.39 371.14 673.39Z" fill="#ffa0dc" opacity="1" stroke-width="4" stroke="none"></path><path d="M408.31 413.98L501.7 314.73C502.27 314.16 502.83 313.6 503.4 313.03 508.31 308.69 514.53 306.24 521.14 306.24 528.68 306.24 536.04 309.45 541.14 315.11 541.7 315.67 542.08 316.24 542.65 316.99 551.51 328.69 549.06 345.49 537.17 354.35L428.12 435.86 408.31 413.98Z" fill="#ffa0dc" opacity="1" stroke-width="4" stroke="none"></path><path d="M675.85 669.26C675.85 668.88 676.04 668.69 676.04 668.32 676.23 667.56 676.23 666.81 676.42 666.05 682.08 622.09 670.95 577.94 644.34 540.96 610.76 494.54 558.68 467.94 501.51 467.94H440.38C440.19 436.24 417.55 409.26 386.23 403.79L376.04 402.09C372.65 401.52 369.25 401.15 365.85 401.15 344.53 401.15 324.72 412.84 314.34 431.52L290.19 475.3C286.23 482.47 286.8 491.15 291.51 497.75L295.66 503.41C306.99 518.88 325.1 528.13 344.16 528.13H376.61L453.02 699.07H443.21C437.93 699.07 432.65 700.2 427.93 702.66 419.44 706.81 413.21 713.79 410 722.66 406.99 731.52 407.55 740.96 411.51 749.45L411.7 749.64H475.66 652.27L668.68 699.64C671.89 689.45 674.34 679.45 675.85 669.26Z" fill="#ffa0dc" opacity="1" stroke-width="4" stroke="none"></path><path d="M334.91 463.98C337.93 463.98 340.38 461.52 340.38 458.5 340.38 455.47 337.93 453.03 334.91 453.03 331.87 453.03 329.44 455.47 329.44 458.5 329.44 461.52 331.87 463.98 334.91 463.98Z" fill="#0f1c29" opacity="1" stroke-width="4" stroke="none"></path><path d="M296.04 503.98L295.48 503.22 291.33 497.56C286.61 490.96 286.04 482.09 290 475.11L294.16 467.56H294.72C304.91 467.56 312.83 472.84 314.91 480.77 317.36 490.58 309.06 501.15 296.61 504.16H296.42L296.04 503.98Z" fill="#370625" opacity="1" stroke-width="4" stroke="none"></path><path d="M509.63 698.67C500.95 677.54 500.38 655.09 506.23 634.71L504.53 633.58C485.48 620.56 462.83 613.58 439.82 613.58H414.91L453.02 698.86H509.63V698.67 698.67Z" fill="#ffc930" opacity="1" stroke-width="4" stroke="none"></path><path d="M453.59 699.07H510.19C489.63 649.64 513.02 592.84 562.46 572.28 565.48 570.96 568.49 570.01 571.51 569.07" stroke="#040103" stroke-width="4" stroke-linecap="round" stroke-linejoin="round" opacity="1" fill="none"></path><path d="M376.78 527.56H389.42" stroke="#040103" stroke-width="4" stroke-linecap="round" stroke-linejoin="round" opacity="1" fill="none"></path><path d="M490.76 359.81L425.29 418.67" stroke="#040103" stroke-width="4" stroke-linecap="round" stroke-linejoin="round" opacity="1" fill="none"></path></g></svg>