<svg xmlns="http://www.w3.org/2000/svg" height="1000" width="1000" version="1.1" xmlns:xlink="http://www.w3.org/1999/xlink" xmlns:svgjs="http://svgjs.com/svgjs"><rect fill="#f3ebe9" width="1000" height="1000"></rect><g><path d="M420.68 445.92L353.47 260.07C352.09 256.13 354.06 251.79 358.01 250.41 360.96 249.43 364.31 250.22 366.28 252.58L493.21 402.17 420.68 445.92Z" fill="#3c2c5b" opacity="1" stroke-width="4" stroke="none"></path><path d="M707.04 528.7C662.11 424.64 568.69 325.7 529.08 286.48 524.54 282.14 517.45 282.14 513.11 286.68 511.14 288.65 509.96 291.41 509.76 294.36L507.79 364.13 311.49 490.27C280.55 510.17 270.7 550.77 289.03 582.7L290.01 584.28C309.52 618.57 353.08 630.39 387.37 610.88 388.55 610.29 389.74 609.5 390.92 608.71 405.9 599.06 417.53 591.57 417.53 591.57 432.7 604.97 471.33 617.39 493.99 609.9L462.66 718.1C459.9 727.95 465.42 738.2 475.07 741.15 604.56 783.13 767.94 669.61 707.04 528.7Z" fill="#61ccff" opacity="1" stroke-width="4" stroke="none"></path><path d="M487.49 463.46C492.93 463.46 497.34 459.05 497.34 453.61 497.34 448.17 492.93 443.75 487.49 443.75 482.05 443.75 477.64 448.17 477.64 453.61 477.64 459.05 482.05 463.46 487.49 463.46Z" fill="#231f20" opacity="1" stroke-width="4" stroke="none"></path><path d="M493.99 609.9C522.18 602.41 537.16 576.59 537.16 576.59" stroke="#002b3f" stroke-width="4" stroke-linecap="round" stroke-linejoin="round" opacity="1" fill="none"></path><path d="M507.79 364.13L505.23 392.31" stroke="#002b3f" stroke-width="4" stroke-linecap="round" stroke-linejoin="round" opacity="1" fill="none"></path><path d="M315.44 610.29L369.83 577.77" stroke="#002b3f" stroke-width="4" stroke-linecap="round" stroke-linejoin="round" opacity="1" fill="none"></path><path d="M315.63 531.46L309.72 551.76C308.34 556.88 311.1 562 316.22 563.58 317.21 563.98 318.39 563.98 319.38 563.98H320.17C325.49 563.58 329.43 559.25 329.03 553.92 329.03 552.94 328.64 551.76 328.25 550.77L319.97 531.26C319.38 530.08 318 529.49 316.82 530.08 316.22 530.27 315.83 530.87 315.63 531.46Z" fill="#2a4552" opacity="1" stroke-width="4" stroke="none"></path><path d="M403.34 397.83L440.78 340.48" stroke="#000000" stroke-width="4" stroke-linecap="round" stroke-linejoin="round" opacity="1" fill="none"></path><path d="M385.01 347.18L411.81 306.39" stroke="#000000" stroke-width="4" stroke-linecap="round" stroke-linejoin="round" opacity="1" fill="none"></path><path d="M367.86 299.69L384.42 274.06" stroke="#000000" stroke-width="4" stroke-linecap="round" stroke-linejoin="round" opacity="1" fill="none"></path></g></svg>