<svg xmlns="http://www.w3.org/2000/svg" height="1000" width="1000" version="1.1" xmlns:xlink="http://www.w3.org/1999/xlink" xmlns:svgjs="http://svgjs.com/svgjs"><rect fill="#f3ebe9" width="1000" height="1000"></rect><g><path d="M250.4 628.52L250 575.71C249.6 520.1 269.33 470.47 307.4 432.21 345.87 393.34 399.48 371.02 454.29 371.02 509.69 371.02 561.71 393.94 600.77 435.79L652.79 491.56C672.82 542.2 674.88 559.96 673.64 581.58 668.54 599.1 664.73 606.66 655.78 615.93 648.39 621.51 631.05 623.46 589.43 628.66H250.4V628.52Z" fill="#ac704e" opacity="1" stroke-width="4" stroke="none"></path><path d="M728.33 572.72C654.59 616.36 537.6 624.14 418.81 585.87 357.82 566.14 304.41 537.04 262.36 502.56 253.99 525.28 249.8 550 250 575.9L250.4 628.72H725.94C731.92 628.72 737.7 626.53 742.08 622.34 746.66 617.96 749.46 612.18 749.65 605.8 749.85 599.42 747.66 593.44 743.28 588.86L728.33 572.72Z" fill="#555555" opacity="0.2" stroke-width="4" stroke="none"></path><path d="M743.32 587.72L652.14 490.82 651.64 491.06C637.88 500.63 626.13 512.98 616.36 527.33L604 521.95C600.02 520.16 596.03 519.36 591.85 519.36 579.49 519.36 568.33 526.74 563.54 538.1 560.36 545.67 560.36 554.04 563.35 561.61 566.33 569.19 572.11 575.17 579.69 578.36L592.24 583.74C589.25 596.49 587.86 609.85 587.86 623.4 587.86 624.99 587.86 626.79 587.86 628.38V628.78H725.98C739.13 628.78 749.69 618.22 749.69 605.06 749.49 598.88 747.5 592.11 743.32 587.72Z" fill="#efdcd7" opacity="1" stroke-width="4" stroke="none"></path><path d="M683.09 577.3C687.17 577.3 690.46 574.01 690.46 569.93 690.46 565.86 687.17 562.55 683.09 562.55 679.02 562.55 675.71 565.86 675.71 569.93 675.71 574.01 679.02 577.3 683.09 577.3Z" fill="#010005" opacity="1" stroke-width="4" stroke="none"></path><path d="M711.39 628.52V628.12C707.2 608.59 715.57 588.26 732.51 577.3L733.11 576.9 743.75 587.74C748.92 592.91 749.65 598.63 749.99 604.74 749.85 619.79 739.09 628.32 725.94 628.98L711.53 628.84Z" fill="#ffffff" opacity="1" stroke-width="4" stroke="none"></path><path d="M402.87 445.16L427.38 463.1" stroke="#525252" stroke-width="4" stroke-linecap="round" stroke-linejoin="round" opacity="1" fill="none"></path><path d="M465.25 393.94L480.99 416.26" stroke="#525252" stroke-width="4" stroke-linecap="round" stroke-linejoin="round" opacity="1" fill="none"></path><path d="M495.34 466.09L513.08 490.6" stroke="#525252" stroke-width="4" stroke-linecap="round" stroke-linejoin="round" opacity="1" fill="none"></path><path d="M329.12 505.35L358.22 509.94" stroke="#525252" stroke-width="4" stroke-linecap="round" stroke-linejoin="round" opacity="1" fill="none"></path><path d="M420.01 502.16L448.11 510.93" stroke="#525252" stroke-width="4" stroke-linecap="round" stroke-linejoin="round" opacity="1" fill="none"></path><path d="M409.44 562.35L434.16 560.16" stroke="#525252" stroke-width="4" stroke-linecap="round" stroke-linejoin="round" opacity="1" fill="none"></path><path d="M487.57 534.45L518.86 547.8" stroke="#525252" stroke-width="4" stroke-linecap="round" stroke-linejoin="round" opacity="1" fill="none"></path><path d="M530.02 451.94L545.57 467.48" stroke="#525252" stroke-width="4" stroke-linecap="round" stroke-linejoin="round" opacity="1" fill="none"></path><path d="M286.87 561.16L313.58 552.19" stroke="#525252" stroke-width="4" stroke-linecap="round" stroke-linejoin="round" opacity="1" fill="none"></path><path d="M499.73 591.25L526.63 586.87" stroke="#525252" stroke-width="4" stroke-linecap="round" stroke-linejoin="round" opacity="1" fill="none"></path><path d="M344.87 431.81L369.38 449.75" stroke="#525252" stroke-width="4" stroke-linecap="round" stroke-linejoin="round" opacity="1" fill="none"></path><path d="M342.68 599.22L373.77 596.83" stroke="#525252" stroke-width="4" stroke-linecap="round" stroke-linejoin="round" opacity="1" fill="none"></path><path d="M587.62 467.48L600.97 494.19" stroke="#525252" stroke-width="4" stroke-linecap="round" stroke-linejoin="round" opacity="1" fill="none"></path><path d="M592.4 550L608.15 556.77" stroke="#3f3f3f" stroke-width="4" stroke-linecap="round" stroke-linejoin="round" opacity="1" fill="none"></path></g></svg>