<svg xmlns="http://www.w3.org/2000/svg" height="1000" width="1000" version="1.1" xmlns:xlink="http://www.w3.org/1999/xlink" xmlns:svgjs="http://svgjs.com/svgjs"><rect fill="#f3ebe9" width="1000" height="1000"></rect><g><path d="M687.85 443.82C687.05 443.82 686.46 443.82 685.66 443.62 680.7 442.43 677.13 436.87 675.74 428.14 674.35 419.4 674.94 408.68 677.72 397.57 683.08 376.32 694.6 360.44 704.32 360.44 705.12 360.44 705.71 360.44 706.51 360.64 711.47 361.83 715.04 367.39 716.43 376.13 717.82 384.86 717.23 395.58 714.45 406.7 709.29 427.74 697.77 443.82 687.85 443.82Z" fill="#faa378" opacity="1" stroke-width="4" stroke="none"></path><path d="M659.26 447.99C649.14 447.99 635.44 433.5 626.9 413.65 622.14 402.53 619.56 391.41 619.76 382.08 619.76 372.75 622.53 366.4 627.5 364.22 628.69 363.62 629.88 363.42 631.27 363.42 641.39 363.42 655.09 377.91 663.63 397.76 668.39 408.88 670.97 420 670.77 429.33 670.77 438.66 667.99 445.01 663.03 447.19 662.04 447.79 660.65 447.99 659.26 447.99Z" fill="#faa378" opacity="1" stroke-width="4" stroke="none"></path><path d="M384.32 687C344.81 687 307.49 669.73 281.88 639.56 234.04 583.18 240.79 498.21 297.17 450.17L421.84 343.97 421.04 341.98C411.71 318.16 419.25 290.76 439.5 275.08 449.63 267.34 462.13 262.97 474.84 262.97 486.15 262.97 497.27 266.35 506.8 272.5 564.77 310.81 580.65 389.03 542.33 447 536.18 456.33 528.84 464.66 520.5 472.21L484.57 503.77 528.84 606.01 471.27 655.04C447.05 675.69 416.08 687 384.32 687Z" fill="#faa378" opacity="1" stroke-width="4" stroke="none"></path><path d="M384.32 687C344.81 687 307.49 669.73 281.88 639.56 234.04 583.18 240.79 498.21 297.17 450.17L421.84 343.97 421.04 341.98C411.71 318.16 419.25 290.76 439.5 275.08 449.63 267.34 462.13 262.97 474.84 262.97 486.15 262.97 497.27 266.35 506.8 272.5 564.77 310.81 580.65 389.03 542.33 447 536.18 456.33 528.84 464.66 520.5 472.21L484.57 503.77 528.84 606.01 471.27 655.04C447.05 675.69 416.08 687 384.32 687Z" fill="#faa378" opacity="1" stroke-width="4" stroke="none"></path><path d="M398.41 603.43C339.45 603.43 286.65 579.6 250.52 541.69 247.74 576.03 257.86 611.37 281.88 639.56 307.49 669.73 344.81 687 384.32 687 416.08 687 446.85 675.69 471.27 655.04L528.84 606.01 512.95 569.28C480.79 590.72 441.09 603.43 398.41 603.43Z" fill="#e97339" opacity="0.2" stroke-width="4" stroke="none"></path><path d="M516.92 475.38C460.15 464.66 412.11 424.56 391.46 370.57L391.26 370.37 421.84 344.36 421.04 342.38C411.71 318.56 419.25 291.16 439.5 275.48 449.63 267.74 462.13 263.37 474.84 263.37 486.15 263.37 497.27 266.74 506.8 272.9 564.77 311.21 580.65 389.43 542.33 447.39 536.18 456.72 528.84 465.06 520.5 472.6L516.92 475.38Z" fill="#fedccb" opacity="1" stroke-width="4" stroke="none"></path><path d="M518.12 737.03V678.27H632.26C654.69 678.27 672.96 696.53 672.96 718.96 672.96 725.12 671.57 731.27 668.79 736.63L668.59 736.83 518.12 737.03Z" fill="#faa378" opacity="1" stroke-width="4" stroke="none"></path><path d="M749.58 498.61L742.04 461.88C736.09 432.9 712.46 410.87 683.08 407.09 680.5 406.7 677.72 406.5 675.14 406.5 648.34 406.5 624.72 423.57 616.18 448.98H493.3C413.89 448.98 349.38 513.5 349.18 592.71V592.91C349.18 672.31 413.89 737.03 493.3 737.03H574.49 668.79L668.99 736.83C671.57 731.27 673.16 725.12 673.16 719.16 673.16 696.73 654.89 678.47 632.46 678.47H601.69L632.86 610.57H666.61C686.06 610.57 703.13 598.07 709.09 579.6 709.68 577.82 709.88 576.03 709.88 574.05 709.88 564.12 701.74 556.18 692.02 556.18H657.67L671.57 526.8 685.66 531.17C691.22 532.95 696.98 533.75 702.74 533.75 714.84 533.75 726.76 529.78 736.48 522.63L741.84 518.66C748.2 513.9 751.17 506.15 749.58 498.61Z" fill="#faa378" opacity="1" stroke-width="4" stroke="none"></path><path d="M549.28 678.27H601.49L632.66 610.37H599.11C581.84 610.37 565.56 618.32 555.04 632.01L546.11 643.33C549.28 654.64 550.28 666.36 549.28 678.27Z" fill="#e97339" opacity="0.2" stroke-width="4" stroke="none"></path><path d="M444.27 565.31C503.23 564.72 554.44 615.14 548.89 678.66H601.1" stroke="#493226" stroke-width="4" stroke-linecap="round" stroke-linejoin="round" opacity="1" fill="none"></path><path d="M708.1 476.97C711.27 476.97 713.85 474.39 713.85 471.22 713.85 468.04 711.27 465.46 708.1 465.46 704.92 465.46 702.34 468.04 702.34 471.22 702.34 474.39 704.92 476.97 708.1 476.97Z" fill="#000000" opacity="1" stroke-width="4" stroke="none"></path><path d="M730.92 525.81C720.4 518.66 715.84 507.74 719.61 499.21 722.39 492.85 729.53 489.08 738.47 489.08 741.45 489.08 744.62 489.48 747.6 490.47H747.8L749.39 498.41C750.97 505.96 748 513.7 741.64 518.46L736.28 522.43C734.7 523.62 732.91 524.81 731.12 525.81H730.92V525.81Z" fill="#231f20" opacity="1" stroke-width="4" stroke="none"></path><path d="M382.33 684.22C361.29 658.61 349.58 626.26 349.77 593.1 349.77 513.7 414.09 449.38 493.5 449.38H538.76" stroke="#493226" stroke-width="4" stroke-linecap="round" stroke-linejoin="round" opacity="1" fill="none"></path><path d="M632.46 609.98H600.9" stroke="#493226" stroke-width="4" stroke-linecap="round" stroke-linejoin="round" opacity="1" fill="none"></path><path d="M422.43 344.36C425.81 351.11 429.78 357.66 434.34 363.62" stroke="#493226" stroke-width="4" stroke-linecap="round" stroke-linejoin="round" opacity="1" fill="none"></path><path d="M648.94 736.63V722.14" stroke="#493226" stroke-width="4" stroke-linecap="round" stroke-linejoin="round" opacity="1" fill="none"></path><path d="M633.06 736.63V722.14" stroke="#493226" stroke-width="4" stroke-linecap="round" stroke-linejoin="round" opacity="1" fill="none"></path></g></svg>