<svg xmlns="http://www.w3.org/2000/svg" height="1000" width="1000" version="1.1" xmlns:xlink="http://www.w3.org/1999/xlink" xmlns:svgjs="http://svgjs.com/svgjs"><rect fill="#f3ebe9" width="1000" height="1000"></rect><g><path d="M424.2 624.2C422.61 624.2 421.2 624.2 419.61 624.03 398.23 621.55 382.86 602.12 385.16 580.74L391.17 529.33C393.46 509.54 410.07 494.7 430.04 494.7 431.63 494.7 433.04 494.7 434.63 494.88 456.01 497.35 471.38 516.78 469.08 538.16L463.07 589.58C460.6 609.36 443.99 624.2 424.2 624.2Z" fill="#ffc930" opacity="1" stroke-width="4" stroke="none"></path><path d="M646.29 624.2C626.5 624.2 609.72 609.36 607.42 589.58L601.41 538.16C598.94 516.78 614.31 497.35 635.87 494.88 637.46 494.7 638.87 494.7 640.46 494.7 660.25 494.7 677.03 509.54 679.33 529.33L685.34 580.74C686.57 591.17 683.57 601.41 677.21 609.54 670.67 617.67 661.48 622.97 651.06 624.03 649.29 624.2 647.88 624.2 646.29 624.2Z" fill="#ffc930" opacity="1" stroke-width="4" stroke="none"></path><path d="M284.1 577.39C265.37 577.39 250 562.01 250 543.29 250 537.1 251.77 530.92 254.95 525.44 272.97 495.94 304.59 478.27 339.22 478.27 357.24 478.27 375.09 483.22 390.64 492.76 419.79 510.6 437.81 542.76 437.81 576.86V577.21L284.1 577.39V576.86 577.39Z" fill="#ffc930" opacity="1" stroke-width="4" stroke="none"></path><path d="M390.64 492.93C382.33 487.81 373.5 484.1 364.31 481.63 358.48 506.18 343.46 527.74 321.55 541.87 306.36 551.59 288.69 557.07 270.49 557.42 264.49 557.6 258.48 557.07 252.65 556.18 257.77 568.55 269.96 577.39 284.28 577.39V577.03 577.39H437.99V577.03C437.81 542.93 419.79 510.78 390.64 492.93Z" fill="#a54b3c" opacity="0.2" stroke-width="4" stroke="none"></path><path d="M298.59 531.98C304.82 531.98 309.89 526.93 309.89 520.67 309.89 514.43 304.82 509.36 298.59 509.36 292.35 509.36 287.28 514.43 287.28 520.67 287.28 526.93 292.35 531.98 298.59 531.98Z" fill="#010005" opacity="1" stroke-width="4" stroke="none"></path><path d="M327.56 577.39V577.03C327.56 462.37 420.85 369.26 535.34 369.26 649.82 369.26 743.11 462.54 743.11 577.03V577.39H327.56Z" fill="#ff4f32" opacity="1" stroke-width="4" stroke="none"></path><path d="M480.39 490.46C442.76 490.46 407.6 465.9 390.99 427.74L390.81 427.56 390.99 427.39C429.86 389.93 480.92 369.26 534.81 369.26H535.16C543.64 369.26 552.3 369.79 560.78 370.85H560.95V371.02C573.67 418.9 552.12 467.67 510.95 484.45 501.41 488.52 490.99 490.46 480.39 490.46Z" fill="#ffc930" opacity="1" stroke-width="4" stroke="none"></path><path d="M583.22 532.51C578.27 532.51 573.32 531.45 568.9 529.33 559.89 525.09 553.18 517.31 550 507.24 546.82 497.17 547.7 486.04 552.47 475.97 559.54 460.6 574.03 450.71 589.58 450.71 594.52 450.71 599.47 451.77 603.89 453.89 622.61 462.54 630.04 486.57 620.32 507.24 613.25 522.61 598.76 532.51 583.22 532.51Z" fill="#ffc930" opacity="1" stroke-width="4" stroke="none"></path><path d="M697.17 447C678.8 503.36 628.27 550.53 560.78 577.56H743.11V577.21C743.11 527.92 725.8 482.51 697.17 447Z" fill="#a54b3c" opacity="0.2" stroke-width="4" stroke="none"></path></g></svg>