<svg xmlns="http://www.w3.org/2000/svg" height="1000" width="1000" version="1.1" xmlns:xlink="http://www.w3.org/1999/xlink" xmlns:svgjs="http://svgjs.com/svgjs"><rect fill="#f3ebe9" width="1000" height="1000"></rect><g><path d="M671.16 576.46L699.1 549.8C712.33 557.37 748.69 573.9 748.69 573.9L748.37 575.08C748.37 575.08 746.56 576.89 742.61 576.78L671.16 576.46Z" fill="#ff4f32" opacity="1" stroke-width="4" stroke="none"></path><path d="M749.12 574.12C742.4 574.12 711.9 557.16 699.21 549.8L717.12 532.74C717.55 533.06 753.28 563.13 749.76 573.05L749.12 574.12Z" fill="#ffffff" opacity="1" stroke-width="4" stroke="none"></path><path d="M690.46 470.46L691.64 470.35 694.73 490.72C695.16 490.61 742.61 482.4 744.21 477.18L745.28 477.92C745.28 478.03 745.28 478.03 745.39 478.14 747.94 489.01 698.89 530.82 698.36 531.24L690.46 470.46Z" fill="#ff4f32" opacity="1" stroke-width="4" stroke="none"></path><path d="M691.64 470.46C694.52 470.24 702.19 469.82 710.62 469.82 725.23 469.82 743.15 471.1 744.85 476.96 743.68 482.29 696.76 490.51 694.73 490.83L691.64 470.46Z" fill="#ffffff" opacity="1" stroke-width="4" stroke="none"></path><path d="M685.88 476.32L687.69 437.93" stroke="#3e1710" stroke-width="4" stroke-linecap="round" stroke-linejoin="round" opacity="1" fill="none"></path><path d="M678.41 472.16L668.39 423.21" stroke="#3e1710" stroke-width="4" stroke-linecap="round" stroke-linejoin="round" opacity="1" fill="none"></path><path d="M514.18 574.44L466.4 510.88C466.08 510.34 466.08 509.7 466.51 509.28L488.48 486.03C488.8 485.71 488.91 485.28 488.8 484.85 484.43 469.71 475.57 443.58 464.48 434.3 454.89 426.31 446.35 424.6 440.92 424.6 438.25 424.6 435.8 425.03 433.56 425.67L433.34 425.77C431 426.63 429.18 428.33 428.12 430.57 427.05 432.81 426.94 435.37 427.8 437.72 428.44 439.53 429.61 441.02 431.1 442.09L441.87 451.37C442.51 451.9 442.41 452.86 441.87 453.29 439.64 455.1 434.73 459.47 429.72 465.23 423.64 472.38 416.39 483.36 416.39 494.99 416.39 510.24 424.6 518.13 431.85 522.07 432.49 522.39 432.7 523.25 432.28 523.89L411.69 552.68C411.37 553.21 410.73 553.32 410.09 553.11 409.03 552.68 407 552.04 404.02 552.04 394.84 552.04 374.48 552.68 344.93 544.04 332.24 540.31 318.7 534.12 305.69 528.05L303.88 527.19C288.09 519.94 265.16 509.28 254.29 518.45 249.38 522.5 249.38 528.79 250.87 533.91 253.75 543.83 266.66 553.85 287.24 561.96 309.53 570.7 338.54 576.36 361.14 576.36H513.11C514.18 576.46 514.82 575.29 514.18 574.44Z" fill="#7e2b1d" opacity="1" stroke-width="4" stroke="none"></path><path d="M403.59 576.46C377.14 556.84 375.01 531.99 377.99 514.5 380.87 497.44 388.98 483.89 390.47 481.44 390.58 481.23 390.58 480.91 390.26 480.8L375.65 471.74C374.9 471.31 374.26 470.78 373.62 470.14 371.38 467.9 370.1 465.02 370.1 461.82 370.1 458.62 371.28 455.74 373.41 453.5L373.62 453.29C375.86 451.05 381.09 449.66 387.49 449.66 394.52 449.66 404.44 451.47 410.95 456.49 422.57 465.34 432.49 486.56 434.2 490.29 434.3 490.61 434.73 490.61 434.94 490.51 440.81 486.24 447.42 484.11 454.67 484.11 467.04 484.11 478.03 489.44 478.13 489.55 479.63 490.72 486.77 497.97 496.16 510.98 496.26 511.09 496.26 511.09 496.37 511.2 500.64 512.58 505.65 513.33 511.19 513.33 525.59 513.33 541.37 508.42 553.32 500.32 563.13 493.71 574.86 481.87 575.5 463.1 575.5 462.78 575.82 462.57 576.14 462.67 585.53 465.87 593.95 470.88 601.31 477.5 601.52 477.71 601.95 477.6 602.05 477.39L609.09 463.63C609.2 463.42 609.2 463.21 608.99 462.99L594.38 449.55C593.31 448.6 592.46 447.32 591.82 445.93 589.79 440.92 592.24 435.16 597.26 433.13L597.47 433.02C600.56 431.85 603.87 431.32 607.39 431.32 614.53 431.32 621.78 433.88 628.4 438.68 638.85 446.25 643.43 464.27 644.29 467.9 644.39 468.22 644.71 468.32 645.03 468.22 653.56 463.85 662.52 461.71 671.59 461.71 696.01 461.71 714.67 477.39 720.54 493.17 720.64 493.39 720.54 493.71 720.32 493.81 715.84 495.95 710.62 501.6 710.62 505.86 710.62 512.8 720.11 516.21 724.59 517.38 724.8 517.49 724.91 517.59 724.91 517.81 725.34 529.22 723.84 549.69 710.73 563.45 702.3 572.2 690.46 576.57 675.43 576.57L403.59 576.46Z" fill="#ff4f32" opacity="1" stroke-width="4" stroke="none"></path><path d="M575.82 535.62C570.17 546.07 557.8 563.24 533.16 573.9 531.88 574.44 532.2 576.46 533.7 576.46H592.78C593.95 576.46 594.59 574.97 593.63 574.12 588.19 569.32 576.99 556.84 578.27 536.26 578.38 534.98 576.46 534.34 575.82 535.62Z" fill="#7e2b1d" opacity="0.2" stroke-width="4" stroke="none"></path><path d="M644.5 468.32C644.5 468.32 652.39 501.6 655.7 518.66 659.22 515.99 661.14 511.62 660.6 507.14 657.4 479.2 663.06 462.14 663.06 462.14 656.76 463.21 650.58 465.23 644.5 468.32Z" fill="#7e2b1d" opacity="0.2" stroke-width="4" stroke="none"></path><path d="M512.37 514.39C506.71 514.39 500.85 514.39 496.58 513.01 487.41 500.21 478.56 490.29 476.53 488.69 479.84 485.81 511.73 462.25 542.87 458.51 545.75 458.19 549.27 457.98 552.15 457.98 560.57 457.98 568.57 459.79 576.57 462.67 576.14 481.87 564.3 494.67 554.38 501.38 542.55 509.49 526.87 514.39 512.37 514.39Z" fill="#ff8571" opacity="1" stroke-width="4" stroke="none"></path><path d="M702.19 508.32L717.34 506.08" stroke="#3e1710" stroke-width="4" stroke-linecap="round" stroke-linejoin="round" opacity="1" fill="none"></path><path d="M644.5 468.32C648.87 485.81 652.28 503.73 655.7 518.66" stroke="#3e1710" stroke-width="4" stroke-linecap="round" stroke-linejoin="round" opacity="1" fill="none"></path><path d="M600.35 443.37L596.4 449.34" stroke="#3e1710" stroke-width="4" stroke-linecap="round" stroke-linejoin="round" opacity="1" fill="none"></path><path d="M607.81 449.77L603.65 456.06" stroke="#3e1710" stroke-width="4" stroke-linecap="round" stroke-linejoin="round" opacity="1" fill="none"></path><path d="M378.53 462.57L374.58 468.54" stroke="#3e1710" stroke-width="4" stroke-linecap="round" stroke-linejoin="round" opacity="1" fill="none"></path><path d="M387.06 467.9L382.79 474.4" stroke="#3e1710" stroke-width="4" stroke-linecap="round" stroke-linejoin="round" opacity="1" fill="none"></path><path d="M601.95 477.71C579.66 512.9 566.22 547.13 593.63 574.12" stroke="#3e1710" stroke-width="4" stroke-linecap="round" stroke-linejoin="round" opacity="1" fill="none"></path><path d="M505.12 532.1C500.1 514.18 489.65 501.17 476.64 488.59 463.84 483.25 448.27 480.7 434.62 490.61 434.62 490.61 428.65 478.03 424.6 472.06" stroke="#3e1710" stroke-width="4" stroke-linecap="round" stroke-linejoin="round" opacity="1" fill="none"></path><path d="M694.09 495.84C694.09 495.84 697.29 505.86 702.19 508.21 702.19 508.21 698.67 513.22 698.14 522.82" stroke="#3e1710" stroke-width="4" stroke-linecap="round" stroke-linejoin="round" opacity="1" fill="none"></path><path d="M539.35 472.8C538.92 472.8 538.39 472.8 537.96 472.7 533.27 472.38 530.07 469.82 528.79 465.44 526.87 458.51 530.39 447.42 541.16 439.53 545.96 436.76 551.4 435.26 556.94 435.26 559.18 435.26 561.32 435.48 563.56 436.01 577.1 439 585.1 466.19 585.21 466.4 584.99 466.4 571.66 460.22 561.21 458.94 560.68 458.83 560.14 459.15 559.93 459.58 558.12 462.46 550.55 472.8 539.35 472.8Z" fill="#7e2b1d" opacity="1" stroke-width="4" stroke="none"></path><path d="M536.36 462.46L536.26 470.56" stroke="#3e1710" stroke-width="4" stroke-linecap="round" stroke-linejoin="round" opacity="1" fill="none"></path><path d="M546.07 461.5V469.6" stroke="#3e1710" stroke-width="4" stroke-linecap="round" stroke-linejoin="round" opacity="1" fill="none"></path><path d="M434.62 436.22L430.78 440.38" stroke="#3e1710" stroke-width="4" stroke-linecap="round" stroke-linejoin="round" opacity="1" fill="none"></path><path d="M442.19 441.77L437.61 446.68" stroke="#3e1710" stroke-width="4" stroke-linecap="round" stroke-linejoin="round" opacity="1" fill="none"></path><path d="M725.02 517.49C719.68 516.1 710.73 512.58 710.73 505.76 710.73 501.38 716.38 495.31 720.96 493.49 721.07 493.71 721.18 493.92 721.18 494.13 721.28 494.45 721.39 494.67 721.5 494.99 723.63 502.24 724.8 509.81 725.02 517.49Z" fill="#7e2b1d" opacity="1" stroke-width="4" stroke="none"></path><path d="M382.37 551.4C383.43 553.53 389.19 566.33 403.59 576.46" stroke="#3e1710" stroke-width="4" stroke-linecap="round" stroke-linejoin="round" opacity="1" fill="none"></path><path d="M486.99 480.8L476.53 488.69" stroke="#3e1710" stroke-width="4" stroke-linecap="round" stroke-linejoin="round" opacity="1" fill="none"></path></g></svg>