<svg xmlns="http://www.w3.org/2000/svg" height="1000" width="1000" version="1.1" xmlns:xlink="http://www.w3.org/1999/xlink" xmlns:svgjs="http://svgjs.com/svgjs"><rect fill="#f3ebe9" width="1000" height="1000"></rect><g><path d="M252.68 573.19H749.02C749.49 573.19 749.96 572.84 749.96 572.25V564.93C749.96 551.6 739.11 540.75 725.77 540.75L714.57 540.63 323.59 535.79 322.05 532.37C318.87 533.55 315.33 534.73 311.55 536.15 283 546.53 243.24 562.46 251.03 572.37 251.38 572.96 252.09 573.19 252.68 573.19Z" fill="#61ccff" opacity="1" stroke-width="4" stroke="none"></path><path d="M294.92 573.19H698.29C712.91 560.8 714.57 540.63 714.57 540.63L323.59 535.91 322.05 532.49C318.75 533.67 314.86 534.85 311.55 536.15 313.56 561.87 294.92 573.19 294.92 573.19Z" fill="#125b7e" opacity="0.3" stroke-width="4" stroke="none"></path><path d="M735.68 563.28V572.01" stroke="#125b7e" stroke-width="4" stroke-linecap="round" stroke-linejoin="round" opacity="1" fill="none"></path><path d="M724.71 563.28V572.01" stroke="#125b7e" stroke-width="4" stroke-linecap="round" stroke-linejoin="round" opacity="1" fill="none"></path><path d="M556.24 573.19L646.85 573.19C692.62 573.19 703.12 559.39 707.37 534.85 707.37 534.85 707.37 534.85 707.37 534.73 708.57 520.95 709.93 520.6 690.38 510 676.34 503.47 658.53 498.39 654.99 497.45 654.52 497.33 654.16 497.1 654.04 496.62 648.14 485.53 629.74 441.17 593.88 441.17L591.4 441.17C591.28 441.17 591.28 441.17 591.28 441.29 590.57 448.96 581.96 510.9 576.65 534.85 572.64 553.25 562.85 571.66 556.24 573.19Z" fill="#61ccff" opacity="1" stroke-width="4" stroke="none"></path><path d="M610.27 540.75H573.82L550.93 573.19H634.46V564.93C634.34 551.6 623.61 540.75 610.27 540.75Z" fill="#61ccff" opacity="1" stroke-width="4" stroke="none"></path><path d="M324.29 573.19H505.51C491.35 569.18 491 547.47 497.01 532.49 500.44 523.88 516.13 495.92 530.17 471.02 527.69 469.49 479.32 439.29 430.95 429.73 430.95 429.73 430.95 429.73 430.83 429.73L371.01 454.98 322.88 480.93C322.88 480.93 322.88 480.93 322.88 481.05 312.62 507.36 314.5 539.92 324.29 573.19Z" fill="#61ccff" opacity="1" stroke-width="4" stroke="none"></path><path d="M430.95 429.85C430.95 429.73 430.95 429.73 430.95 429.85 410.3 425.6 389.77 425.25 372.78 432.33 347.06 442.94 331.26 460.05 323 480.82V480.93C331.02 490.84 358.04 499.81 367.95 476.92 368.06 476.57 368.42 476.45 368.77 476.57 389.06 486.6 434.96 475.98 430.95 429.85Z" fill="#3c2c5b" opacity="1" stroke-width="4" stroke="none"></path><path d="M707.25 534.85C707.37 534.85 707.37 534.85 707.37 534.73 707.96 531.43 708.2 528.24 708.2 524.82 708.2 519.75 700.17 514.44 690.26 509.96L690.26 509.96C687.9 511.14 686.02 513.14 685.19 515.62 682.95 522.23 688.85 530.25 698.4 533.55 701.35 534.38 704.18 534.85 707.25 534.85Z" fill="#3c2c5b" opacity="1" stroke-width="4" stroke="none"></path><path d="M573.94 540.87H610.39C623.72 540.87 634.58 551.72 634.58 565.05V572.01" stroke="#125b7e" stroke-width="4" stroke-linecap="round" stroke-linejoin="round" opacity="1" fill="none"></path><path d="M625.85 546.41C631.16 550.89 634.58 557.5 634.58 565.05V573.19H646.85V570.36C646.97 558.09 637.76 547.95 625.85 546.41Z" fill="#125b7e" opacity="0.3" stroke-width="4" stroke="none"></path><path d="M620.18 563.28V572.01" stroke="#125b7e" stroke-width="4" stroke-linecap="round" stroke-linejoin="round" opacity="1" fill="none"></path><path d="M609.21 563.28V572.01" stroke="#125b7e" stroke-width="4" stroke-linecap="round" stroke-linejoin="round" opacity="1" fill="none"></path><path d="M458.55 563.28V572.01" stroke="#125b7e" stroke-width="4" stroke-linecap="round" stroke-linejoin="round" opacity="1" fill="none"></path><path d="M447.58 563.28V572.01" stroke="#125b7e" stroke-width="4" stroke-linecap="round" stroke-linejoin="round" opacity="1" fill="none"></path><path d="M437.67 540.16C457.49 524.82 461.86 491.79 459.62 480.82" stroke="#125b7e" stroke-width="4" stroke-linecap="round" stroke-linejoin="round" opacity="1" fill="none"></path><path d="M409.71 540.87H449.82C463.16 540.87 474.01 551.72 474.01 565.05V572.01" stroke="#125b7e" stroke-width="4" stroke-linecap="round" stroke-linejoin="round" opacity="1" fill="none"></path><path d="M459.85 502.05C459.5 501.46 458.67 501.58 458.55 502.29 455.96 515.03 444.87 534.61 438.38 539.69 438.14 539.92 438.26 540.28 438.62 540.28H449C462.92 540.28 474.25 551.6 474.25 565.52V573.07C474.25 573.07 515.3 573.19 533.82 573.19 490.29 555.73 464.81 511.49 459.85 502.05Z" fill="#125b7e" opacity="0.3" stroke-width="4" stroke="none"></path><path d="M706.19 540.63C702.65 556.32 694.75 573.19 646.85 573.19" stroke="#125b7e" stroke-width="4" stroke-linecap="round" stroke-linejoin="round" opacity="1" fill="none"></path><path d="M324.29 573.19C320.87 561.63 317.92 546.29 316.63 534.26" stroke="#125b7e" stroke-width="4" stroke-linecap="round" stroke-linejoin="round" opacity="1" fill="none"></path><path d="M602.61 509.37C609.92 509.25 617 506.53 622.43 501.7" stroke="#125b7e" stroke-width="4" stroke-linecap="round" stroke-linejoin="round" opacity="1" fill="none"></path><path d="M505.51 573.19H556.24C562.96 571.66 575.59 566.23 579.6 547.95 584.79 524 590.45 449.2 591.16 441.29 591.16 441.17 591.16 441.17 591.04 441.17 558.95 440.11 543.03 457.1 530.17 471.02 530.17 471.02 503.74 516.44 496.9 532.49 490.88 547.36 491.35 569.18 505.51 573.19Z" fill="#3c2c5b" opacity="1" stroke-width="4" stroke="none"></path></g></svg>