<svg xmlns="http://www.w3.org/2000/svg" height="1000" width="1000" version="1.1" xmlns:xlink="http://www.w3.org/1999/xlink" xmlns:svgjs="http://svgjs.com/svgjs"><rect fill="#f3ebe9" width="1000" height="1000"></rect><g><path d="M577.04 576.73L539.74 712.1" stroke="#000000" stroke-width="4" stroke-linecap="round" stroke-linejoin="round" opacity="1" fill="none"></path><path d="M612.09 564.01L608.13 712.1" stroke="#000000" stroke-width="4" stroke-linecap="round" stroke-linejoin="round" opacity="1" fill="none"></path><path d="M617.74 346.12L750 287.9 678.79 425.81 617.74 346.12Z" fill="#ffc930" opacity="1" stroke-width="4" stroke="none"></path><path d="M273.23 612.06L614.35 324.64C626.5 314.46 642.05 308.81 657.87 308.81 677.94 308.81 696.59 317.57 709.59 332.83 716.37 341.03 721.46 350.64 723.72 361.09 733.33 403.49 728.53 448.42 710.16 487.71 699.13 510.6 683.02 531.51 663.52 547.9 630.74 575.6 588.63 590.86 544.83 590.86 504.13 590.86 462.87 577.86 428.95 553.84L336.25 689.78 273.23 612.06Z" fill="#61ccff" opacity="1" stroke-width="4" stroke="none"></path><path d="M664.29 368.13C667.4 361.66 664.65 353.89 658.18 350.78 651.68 347.7 643.94 350.44 640.83 356.91 637.75 363.41 640.49 371.16 646.96 374.26 653.43 377.34 661.21 374.6 664.29 368.13Z" fill="#010005" opacity="1" stroke-width="4" stroke="none"></path><path d="M545.11 590.58C524.19 590.58 503.56 587.19 483.22 580.69L482.65 580.4V579.84C492.54 502.12 562.91 443.62 646.57 443.62H646.85C672 443.62 697.16 449.27 720.05 459.73L720.61 460.01V460.58C717.79 469.62 714.4 478.66 710.44 487.42 699.42 510.32 683.31 531.23 663.81 547.62 630.74 575.88 589.48 590.58 545.11 590.58Z" fill="#3c2c5b" opacity="1" stroke-width="4" stroke="none"></path><path d="M304.6 649.65L353.49 590.01" stroke="#000000" stroke-width="4" stroke-linecap="round" stroke-linejoin="round" opacity="1" fill="none"></path><path d="M456.37 539.14C428.95 539.14 402.67 532.92 382.89 521.34 365.08 510.88 353.49 497.32 350.95 483.75H348.12C336.25 483.75 297.54 480.36 292.73 435.42 266.73 427.51 249.49 403.2 250.34 376.07V374.94H592.59C617.18 374.94 636.96 394.73 636.96 419.31 636.96 426.38 635.26 433.44 631.87 439.94 611.52 479.23 579.02 507.49 535.5 523.88 510.06 533.77 483.5 539.14 456.37 539.14Z" fill="#ffffff" opacity="1" stroke-width="4" stroke="none"></path><path d="M445.34 535.47C427.82 519.64 417.93 501.55 418.5 485.73L415.1 485.16C401.82 482.34 359.15 469.34 364.23 417.9 347.28 408.57 335.41 392.75 330.88 374.94H250.06V376.07C248.93 403.2 266.45 427.51 292.45 435.42 297.25 480.08 336.25 483.75 347.84 483.75H350.67C353.21 497.32 364.8 511.16 382.6 521.34 400.69 531.79 424.15 538.01 449.02 538.86 447.89 537.73 446.47 536.6 445.34 535.47Z" fill="#393939" opacity="0.2" stroke-width="4" stroke="none"></path><path d="M293.3 434.57H413.69" stroke="#393939" stroke-width="4" stroke-linecap="round" stroke-linejoin="round" opacity="1" fill="none"></path><path d="M352.36 481.49H463.71" stroke="#393939" stroke-width="4" stroke-linecap="round" stroke-linejoin="round" opacity="1" fill="none"></path></g></svg>